<svg width="209" height="60" viewBox="0 0 209 60" fill="none" xmlns="http://www.w3.org/2000/svg">
<rect x="0.5" y="0.5" width="208" height="59" rx="5.5" fill="white"/>
<rect x="0.5" y="0.5" width="208" height="59" rx="5.5" fill="url(#paint0_linear_1_480)"/>
<rect x="0.5" y="0.5" width="208" height="59" rx="5.5" stroke="url(#paint1_linear_1_480)"/>
<path d="M54.508 22.04V35H50.26V22.04H54.508ZM60.1776 25.568V27.044C61.0416 25.88 62.1036 25.298 63.3636 25.298C65.7996 25.298 67.0176 26.648 67.0176 29.348V35H63.2736V30.014C63.2736 28.838 62.8356 28.25 61.9596 28.25C61.4076 28.25 61.0236 28.412 60.8076 28.736C60.6036 29.06 60.5016 29.546 60.5016 30.194V35H56.7576V25.568H60.1776ZM68.182 25.568H71.926L73.582 31.526L75.22 25.568H78.82L75.634 35H71.458L68.182 25.568ZM83.3799 29.222H86.7819C86.7819 28.79 86.6139 28.412 86.2779 28.088C85.9539 27.752 85.5699 27.584 85.1259 27.584C84.5739 27.584 84.1419 27.734 83.8299 28.034C83.5299 28.322 83.3799 28.718 83.3799 29.222ZM90.5259 31.13H83.3799C83.3799 31.67 83.5599 32.114 83.9199 32.462C84.2799 32.81 84.7179 32.984 85.2339 32.984C85.9059 32.984 86.3739 32.708 86.6379 32.156H90.2199C89.9199 33.236 89.2839 34.028 88.3119 34.532C87.3399 35.024 86.2359 35.27 84.9999 35.27C83.4279 35.27 82.1379 34.838 81.1299 33.974C80.1339 33.11 79.6359 31.91 79.6359 30.374C79.6359 28.85 80.1399 27.626 81.1479 26.702C82.1679 25.766 83.4459 25.298 84.9819 25.298C86.7099 25.298 88.0659 25.826 89.0499 26.882C90.0339 27.926 90.5259 29.342 90.5259 31.13ZM91.676 32.066H95.24C95.24 32.426 95.366 32.708 95.618 32.912C95.87 33.116 96.182 33.218 96.554 33.218C97.346 33.218 97.742 32.936 97.742 32.372C97.742 32.144 97.598 31.958 97.31 31.814C97.022 31.658 96.662 31.55 96.23 31.49C95.81 31.418 95.348 31.322 94.844 31.202C94.352 31.07 93.89 30.914 93.458 30.734C93.038 30.554 92.684 30.266 92.396 29.87C92.108 29.474 91.964 28.988 91.964 28.412C91.964 27.836 92.102 27.338 92.378 26.918C92.654 26.486 93.02 26.162 93.476 25.946C93.932 25.718 94.406 25.556 94.898 25.46C95.39 25.352 95.9 25.298 96.428 25.298C99.38 25.298 100.94 26.288 101.108 28.268H97.706C97.682 27.98 97.568 27.758 97.364 27.602C97.16 27.434 96.902 27.35 96.59 27.35C95.882 27.35 95.528 27.572 95.528 28.016C95.528 28.244 95.732 28.43 96.14 28.574C96.548 28.718 97.04 28.85 97.616 28.97C98.204 29.09 98.792 29.246 99.38 29.438C99.968 29.618 100.466 29.924 100.874 30.356C101.282 30.776 101.486 31.316 101.486 31.976C101.486 32.996 101.06 33.8 100.208 34.388C99.356 34.976 98.09 35.27 96.41 35.27C95.822 35.27 95.276 35.216 94.772 35.108C94.268 35.012 93.782 34.85 93.314 34.622C92.846 34.394 92.468 34.064 92.18 33.632C91.892 33.2 91.724 32.678 91.676 32.066ZM103.742 22.634H107.486V25.568H109.286V27.728H107.486V31.148C107.486 31.604 107.552 31.916 107.684 32.084C107.828 32.24 108.152 32.318 108.656 32.318H109.25V35C108.662 35 108.206 35 107.882 35C107.558 35 107.192 34.988 106.784 34.964C106.376 34.94 106.07 34.916 105.866 34.892C105.674 34.868 105.446 34.826 105.182 34.766C104.918 34.706 104.732 34.64 104.624 34.568C104.528 34.484 104.408 34.376 104.264 34.244C104.12 34.112 104.024 33.974 103.976 33.83C103.94 33.686 103.892 33.5 103.832 33.272C103.784 33.044 103.754 32.81 103.742 32.57C103.742 32.318 103.742 32.018 103.742 31.67V27.728H102.41V25.568H103.742V22.634ZM117.162 22.04H121.14L125.766 29.114L125.604 26.162V22.04H129.672V35H125.694L121.068 27.944L121.23 30.896V35H117.162V22.04ZM136.962 27.818C136.386 27.818 135.966 28.058 135.702 28.538C135.438 29.006 135.306 29.558 135.306 30.194C135.306 31.058 135.45 31.7 135.738 32.12C136.026 32.54 136.422 32.75 136.926 32.75C138.006 32.75 138.546 31.898 138.546 30.194C138.546 29.498 138.396 28.928 138.096 28.484C137.808 28.04 137.43 27.818 136.962 27.818ZM131.562 30.392C131.562 28.784 132.048 27.536 133.02 26.648C133.992 25.748 135.288 25.298 136.908 25.298C138.564 25.298 139.872 25.748 140.832 26.648C141.804 27.536 142.29 28.718 142.29 30.194C142.29 31.85 141.792 33.11 140.796 33.974C139.812 34.838 138.522 35.27 136.926 35.27C135.354 35.27 134.064 34.85 133.056 34.01C132.06 33.158 131.562 31.952 131.562 30.392ZM143.298 25.568H146.952L148.392 31.4H148.428L149.886 25.568H153.054L154.494 31.4H154.53L155.988 25.568H159.534L156.528 35H152.874L151.416 29.474H151.38L150.066 35H146.412L143.298 25.568Z" fill="white"/>
<defs>
<linearGradient id="paint0_linear_1_480" x1="0" y1="0" x2="187.484" y2="100.242" gradientUnits="userSpaceOnUse">
<stop stop-color="#7A42F4"/>
<stop offset="1" stop-color="#4642F4"/>
</linearGradient>
<linearGradient id="paint1_linear_1_480" x1="19.9969" y1="-7.24189" x2="86.2464" y2="74.7491" gradientUnits="userSpaceOnUse">
<stop stop-color="white" stop-opacity="0.56"/>
<stop offset="1" stop-color="white" stop-opacity="0"/>
</linearGradient>
</defs>
</svg>
